<?xml version="1.0"?><svg version="1.2" baseProfile="tiny-ps" viewBox="0 0 900 900" xmlns="http://www.w3.org/2000/svg" xmlns:xlink="http://www.w3.org/1999/xlink"><title>sgssoft</title><g><g fill="#78e3e7" transform="matrix(.1 0 0 -.1 0 900)"><path d="M5670 7464c-444-39-863-160-1300-375-438-214-753-449-1220-904-107-105-228-221-268-258-303-280-598-383-1198-416-158-9-1120-31-1361-31h-73V1490h1590v1225c0 674 1 1225 3 1225 484 18 771 69 1142 206l128 47 156 78 156 77 120 80c210 140 357 266 680 581 388 379 555 506 860 657l150 73 135 45c74 25 182 55 240 67l105 21 150 2 150 1 75-14c175-32 378-116 548-229l87-57 116-115 115-115 56-85c110-167 186-355 224-550l18-95v-300l-13-75c-35-196-115-394-225-559l-64-96-83-84c-145-145-285-239-471-315l-88-36-104-25-105-25-113-10-113-10H2550v44c0 23-5 57-11 75l-11 32-29 14c-15 8-37 15-48 15h-19l-31-26-31-26V1490h3635l144 15c166 17 174 18 341 52 243 49 465 125 705 243l160 78 117 75c462 296 819 690 1057 1166 392 782 425 1667 93 2491-387 962-1294 1674-2334 1831l-133 20-220 3c-121 2-240 2-265 0zm500-189c331-39 630-129 941-284l135-68 135-88c701-457 1138-1147 1266-2000l17-110v-530l-18-115c-51-331-140-611-285-895l-76-150-80-120c-230-346-527-628-886-846-314-190-647-307-1069-376l-105-17-1797-3-1798-4v183l1748-4 1747-3 110 13c318 39 638 133 893 261 776 390 1296 1112 1423 1976 6 39 14 137 19 218l8 148-9 157-8 157-21 118c-127 741-526 1362-1144 1776-385 259-810 407-1270 442l-141 11-125-7c-352-19-640-85-995-227-518-209-877-456-1390-958-387-379-490-461-709-566-367-175-719-217-1871-226l-390-3v170l460 7c253 3 582 12 730 18l270 11 165 24c258 38 413 82 585 168 169 84 293 184 590 476 329 323 537 500 770 657 444 299 953 508 1438 589 155 26 240 32 432 34l180 1 125-15zM1660 2805V1670h-170v2270h170V2805z"/></g><g fill="#88d9cd" transform="matrix(.1 0 0 -.1 0 900)"><path d="M5670 7464c-444-39-863-160-1300-375-438-214-753-449-1220-904-347-339-421-400-584-486-153-80-312-125-556-159-206-28-420-39-935-46-247-4-444-9-437-11l12-5v-171l373 7c204 3 482 11 617 17l245 11 165 23c257 38 413 82 585 168 169 84 293 184 590 476 232 227 372 355 530 480 547 437 1224 724 1865 791 52 5 169 10 260 10h165l125-15c331-39 630-129 941-284l135-68 135-88c701-457 1138-1147 1266-2000l17-110v-530l-18-115c-51-331-140-611-285-895l-76-150-80-120c-230-346-527-628-886-846-314-190-647-307-1069-376l-105-17-1797-3-1798-4v183l1748-4 1747-3 110 13c318 39 638 133 893 261 776 390 1296 1112 1423 1976 6 39 14 137 19 218l8 148-9 157-8 157-21 118c-127 741-526 1362-1144 1776-385 259-810 407-1270 442l-141 11-125-7c-352-19-640-85-995-227-518-209-877-456-1390-958-226-221-277-269-373-349-297-248-630-368-1142-410-178-15-600-31-835-31-110 0-244-3-297-7l-98-6V1490h1190v1225c0 674 1 1225 3 1225 484 18 771 69 1142 206l128 47 156 78 156 77 120 80c210 140 357 266 680 581 388 379 555 506 860 657l150 73 135 45c74 25 182 55 240 67l105 21 150 2 150 1 75-14c175-32 378-116 548-229l87-57 116-115 115-115 56-85c110-167 186-355 224-550l18-95v-300l-13-75c-35-196-115-394-225-559l-64-96-83-84c-145-145-285-239-471-315l-88-36-104-25-105-25-113-10-113-10H2550v44c0 23-5 57-11 75l-11 32-29 14c-15 8-37 15-48 15h-19l-31-26-31-26V1490h3635l144 15c166 17 174 18 341 52 243 49 465 125 705 243l160 78 117 75c462 296 819 690 1057 1166 392 782 425 1667 93 2491-387 962-1294 1674-2334 1831l-133 20-220 3c-121 2-240 2-265 0zM1660 2805V1670h-170v2270h170V2805z"/></g><g fill="#97cfb3" transform="matrix(.1 0 0 -.1 0 900)"><path d="M5670 7464c-444-39-863-160-1300-375-438-214-753-449-1220-904-107-105-228-221-268-258-199-184-388-286-647-348-184-44-553-79-836-79-69 0-167-3-217-6l-92-7v-167h158c88 0 264 5 393 10l234 11 170 24c261 37 416 81 590 168 169 84 293 184 590 476 232 227 372 355 530 480 547 437 1224 724 1865 791 52 5 169 10 260 10h165l125-15c331-39 630-129 941-284l135-68 135-88c701-457 1138-1147 1266-2000l17-110v-530l-18-115c-51-331-140-611-285-895l-76-150-80-120c-230-346-527-628-886-846-314-190-647-307-1069-376l-105-17-1797-3-1798-4v183l1748-4 1747-3 110 13c318 39 638 133 893 261 776 390 1296 1112 1423 1976 6 39 14 137 19 218l8 148-9 157-8 157-21 118c-127 741-526 1362-1144 1776-385 259-810 407-1270 442l-141 11-125-7c-352-19-640-85-995-227-518-209-877-456-1390-958-226-221-277-269-373-349-297-248-630-368-1142-410-132-11-581-31-712-31h-78l-2-1825-3-1825h755v1225c0 674 1 1225 3 1225 484 18 771 69 1142 206l128 47 156 78 156 77 120 80c210 140 357 266 680 581 388 379 555 506 860 657l150 73 135 45c74 25 182 55 240 67l105 21 150 2 150 1 75-14c175-32 378-116 548-229l87-57 116-115 115-115 56-85c110-167 186-355 224-550l18-95v-300l-13-75c-35-196-115-394-225-559l-64-96-83-84c-145-145-285-239-471-315l-88-36-104-25-105-25-113-10-113-10H2550v44c0 23-5 57-11 75l-11 32-29 14c-15 8-37 15-48 15h-19l-31-26-31-26V1490h3635l144 15c166 17 174 18 341 52 243 49 465 125 705 243l160 78 117 75c462 296 819 690 1057 1166 392 782 425 1667 93 2491-387 962-1294 1674-2334 1831l-133 20-220 3c-121 2-240 2-265 0zM1660 2805V1670h-170v2270h170V2805z"/></g><g fill="#aac293" transform="matrix(.1 0 0 -.1 0 900)"><path d="M5670 7464c-444-39-863-160-1300-375-438-214-753-449-1220-904-347-339-421-400-584-486-197-103-488-169-818-184-68-3-138-8-155-11l-33-5v-172l163 7 162 7 165 24c258 38 413 82 585 168 169 84 293 184 590 476 232 227 372 355 530 480 547 437 1224 724 1865 791 52 5 169 10 260 10h165l125-15c331-39 630-129 941-284l135-68 135-88c701-457 1138-1147 1266-2000l17-110v-530l-18-115c-51-331-140-611-285-895l-76-150-80-120c-230-346-527-628-886-846-314-190-647-307-1069-376l-105-17-1797-3-1798-4v183l1748-4 1747-3 110 13c318 39 638 133 893 261 776 390 1296 1112 1423 1976 6 39 14 137 19 218l8 148-9 157-8 157-21 118c-127 741-526 1362-1144 1776-385 259-810 407-1270 442l-141 11-125-7c-352-19-640-85-995-227-518-209-877-456-1390-958-226-221-277-269-373-349-303-253-648-374-1169-411-81-6-181-13-220-16l-73-6V3940h100V1670h-101l3-87 3-88 138-3 137-3v1226c0 674 1 1225 3 1225 484 18 771 69 1142 206l128 47 156 78 156 77 120 80c210 140 357 266 680 581 388 379 555 506 860 657l150 73 135 45c74 25 182 55 240 67l105 21 150 2 150 1 75-14c175-32 378-116 548-229l87-57 116-115 115-115 56-85c110-167 186-355 224-550l18-95v-300l-13-75c-35-196-115-394-225-559l-64-96-83-84c-145-145-285-239-471-315l-88-36-104-25-105-25-113-10-113-10H2550v44c0 23-5 57-11 75l-11 32-29 14c-15 8-37 15-48 15h-19l-31-26-31-26V1490h3635l144 15c166 17 174 18 341 52 243 49 465 125 705 243l160 78 117 75c462 296 819 690 1057 1166 392 782 425 1667 93 2491-387 962-1294 1674-2334 1831l-133 20-220 3c-121 2-240 2-265 0z"/></g><g fill="#c4b166" transform="matrix(.1 0 0 -.1 0 900)"><path d="M5670 7464c-444-39-863-160-1300-375-438-214-753-449-1220-904-347-339-421-400-584-486l-91-48-95-30c-52-17-114-35-137-41l-43-11v-179h9c22 0 213 53 276 77 247 93 387 195 740 542 232 227 372 355 530 480 547 437 1224 724 1865 791 52 5 169 10 260 10h165l125-15c331-39 630-129 941-284l135-68 135-88c701-457 1138-1147 1266-2000l17-110v-530l-18-115c-51-331-140-611-285-895l-76-150-80-120c-230-346-527-628-886-846-314-190-647-307-1069-376l-105-17-1797-3-1798-4v183l1748-4 1747-3 110 13c318 39 638 133 893 261 776 390 1296 1112 1423 1976 6 39 14 137 19 218l8 148-9 157-8 157-21 118c-127 741-526 1362-1144 1776-385 259-810 407-1270 442l-141 11-125-7c-352-19-640-85-995-227-518-209-877-456-1390-958-226-221-277-269-373-349-207-173-441-286-725-350l-97-23V3958l53 7c584 77 1098 289 1517 628 131 105 226 193 455 416 388 379 555 506 860 657l150 73 135 45c74 25 182 55 240 67l105 21 150 2 150 1 75-14c175-32 378-116 548-229l87-57 116-115 115-115 56-85c110-167 186-355 224-550l18-95v-300l-13-75c-35-196-115-394-225-559l-64-96-83-84c-145-145-285-239-471-315l-88-36-104-25-105-25-113-10-113-10H2550v44c0 23-5 57-11 75l-11 32-29 14c-15 8-37 15-48 15h-19l-31-26-31-26V1490h3635l144 15c166 17 174 18 341 52 243 49 465 125 705 243l160 78 117 75c462 296 819 690 1057 1166 392 782 425 1667 93 2491-387 962-1294 1674-2334 1831l-133 20-220 3c-121 2-240 2-265 0z"/></g><g fill="#d8a443" transform="matrix(.1 0 0 -.1 0 900)"><path d="M5670 7464c-767-68-1532-404-2170-952-47-40-205-189-352-330l-267-257-1-117v-118l27 23c91 76 148 130 318 296 233 228 373 355 530 480 547 437 1224 724 1865 791 52 5 169 10 260 10h165l125-15c331-39 630-129 941-284l135-68 135-88c701-457 1138-1147 1266-2000l17-110v-530l-18-115c-51-331-140-611-285-895l-76-150-80-120c-230-346-527-628-886-846-314-190-648-307-1069-376l-105-17-1632-3-1633-4v-179h3125l144 15c166 17 174 18 341 52 243 49 465 125 705 243l160 78 117 75c462 296 819 690 1057 1166 392 782 425 1667 93 2491-387 962-1294 1674-2334 1831l-133 20-220 3c-121 2-240 2-265 0zm70-351c-410-27-820-143-1231-349-398-198-683-412-1114-834-274-268-414-394-487-438l-28-16V4109l23 6c75 24 272 107 388 166l136 69 119 79c209 139 356 265 679 580 388 379 555 506 860 657l150 73 135 45c74 25 182 55 240 67l105 21 150 2 150 1 75-14c175-32 378-116 548-229l87-57 116-115 115-115 56-85c110-167 186-355 224-550l18-95v-300l-13-75c-35-196-115-394-225-559l-64-96-83-84c-145-145-285-239-471-315l-88-36-104-25-105-25-113-10-113-10H2880V1852l1418-7 1417-8 180 7c374 14 638 65 935 181 888 346 1502 1120 1641 2070 6 39 14 137 19 218l8 148-9 157-8 157-21 118c-127 741-526 1362-1144 1776-472 317-1050 480-1576 444z"/></g><g fill="#ec9722" transform="matrix(.1 0 0 -.1 0 900)"><path d="M5670 7464c-448-40-868-161-1310-380-305-151-601-348-858-570l-33-29 3-117 3-117 80 71c423 376 880 643 1390 811 323 107 617 156 935 157h165l125-15c331-39 630-129 941-284l135-68 135-88c701-457 1138-1147 1266-2000l17-110v-530l-18-115c-51-331-140-611-285-895l-76-150-80-120c-230-346-527-628-886-846-314-190-649-307-1069-376l-105-17-1337-3-1338-4v-179h2535l144 15c166 17 174 18 341 52 243 49 465 125 705 243l160 78 117 75c462 296 819 690 1057 1166 392 782 425 1667 93 2491-387 962-1294 1674-2334 1831l-133 20-220 3c-121 2-240 2-265 0zm70-351c-330-22-618-90-955-225-467-188-827-425-1253-824l-63-59 3-813 3-813 95 65c194 132 347 264 655 565 388 379 555 506 860 657l150 73 135 45c74 25 182 55 240 67l105 21 150 2 150 1 75-14c175-32 378-116 548-229l87-57 116-115 115-115 56-85c110-167 186-355 224-550l18-95v-300l-13-75c-35-196-115-394-225-559l-64-96-83-84c-145-145-285-239-471-315l-88-36-104-25-105-25-113-10-113-10H3470V1852l827-7 828-8 480 6 480 6 111 15c302 40 607 132 852 255 776 390 1296 1112 1423 1976 6 39 14 137 19 218l8 148-9 157-8 157-21 118c-127 741-526 1362-1144 1776-472 317-1050 480-1576 444z"/></g><g fill="#ff8605" transform="matrix(.1 0 0 -.1 0 900)"><path d="M5670 7464c-503-45-1003-203-1485-470l-100-56 3-95 3-95-17-19-16-18 108 65c313 189 716 356 1044 433 252 59 429 81 670 81h165l125-15c331-39 630-129 941-284l135-68 135-88c701-457 1138-1147 1266-2000l17-110v-530l-18-115c-51-331-140-611-285-895l-76-150-80-120c-230-346-527-628-886-846-314-190-650-308-1069-376l-105-17-1027-3-1027-4-3-89-3-90h1920l144 15c166 17 174 18 341 52 243 49 465 125 705 243l160 78 117 75c462 296 819 690 1057 1166 392 782 425 1667 93 2491-387 962-1294 1674-2334 1831l-133 20-220 3c-121 2-240 2-265 0zm70-351c-175-11-365-41-535-84-305-77-710-252-990-428-88-55-174-115-137-96l12 6-2-815-3-816 6 2c4 2 76 71 161 154 362 353 534 482 833 630l150 73 135 45c74 25 182 55 240 67l105 21 150 2 150 1 75-14c175-32 378-116 548-229l87-57 116-115 115-115 56-85c110-167 186-355 224-550l18-95v-300l-13-75c-35-196-115-394-225-559l-64-96-83-84c-145-145-285-239-471-315l-88-36-104-25-105-25-113-10-113-10H4090V1852l203-7 202-7 795 5 795 5 111 15c234 33 435 84 632 161 890 347 1503 1120 1643 2071 6 39 14 137 19 218l8 148-9 157-8 157-21 118c-127 741-526 1362-1144 1776-472 317-1050 480-1576 444z"/></g><g fill="#ff7512" transform="matrix(.1 0 0 -.1 0 900)"><path d="M5758 7463c7-3 16-2 19 1 4 3-2 6-13 5l-19-1 13-5zm92-81v-92h98c356 0 785-110 1163-299l135-68 135-88c701-457 1138-1147 1266-2000l17-110v-530l-18-115c-51-331-140-611-285-895l-76-150-80-120c-186-280-433-535-701-725-430-306-954-489-1474-515-63-3-130-8-147-11l-33-5v-169h78c72 0 321 22 401 36 320 53 586 137 866 274l160 78 117 75c462 296 819 690 1057 1166 392 782 425 1667 93 2491-387 962-1301 1678-2334 1830l-133 20-152 6-153 7v-91zm0-881v-618l95-7c247-17 468-95 693-244l87-57 116-115 115-115 56-85c110-167 186-355 224-550l18-95v-300l-13-75c-35-196-115-394-225-559l-64-96-83-84c-145-145-285-239-471-315l-88-36-104-25-105-25-113-10c-62-5-119-10-125-10h-13V1851l-17-5c-27-7 209 4 327 15 289 29 630 128 888 258 776 390 1296 1112 1423 1976 6 39 14 137 19 218l8 148-9 157-8 157-21 118c-127 741-526 1362-1144 1776-380 256-810 406-1256 441-69 5-144 10-167 10h-43v-619z"/></g><g fill="#ff6421" transform="matrix(.1 0 0 -.1 0 900)"><path d="M7218 7035l3-105h8c5 0 71-41 147-91 709-467 1142-1149 1271-2004l17-110v-530l-18-115c-51-331-140-611-285-895l-76-150-80-120c-110-166-212-289-352-427-172-170-310-280-498-397-38-24-71-48-73-53-2-4-11-8-21-8-9 0-22-5-29-12l-12-12v-185l21 4c49 10 310 172 453 283 355 275 638 617 835 1011 392 782 425 1667 93 2491-248 616-740 1169-1322 1483l-85 46 3-104zm-1-1269l2-971 18-90 17-90 1-130c0-144-8-244-27-320l-13-50 3-948 2-948 58 31c130 70 389 284 531 440 358 393 584 874 662 1405 6 39 14 137 19 218l8 148-9 157-8 157-21 118c-126 741-526 1362-1143 1776l-102 68 2-971z"/></g></g></svg>
