<?xml version="1.0" encoding="UTF-8" standalone="no"?>
<!-- Created with Inkscape (http://www.inkscape.org/) -->

<svg
   version="1.1"
   id="svg62103"
   width="800"
   height="800"
   viewBox="0 0 800 800"
   sodipodi:docname="landscape-sunset-vector-clipart-pdv.svg"
   inkscape:version="1.2 (dc2aedaf03, 2022-05-15)"
   xmlns:inkscape="http://www.inkscape.org/namespaces/inkscape"
   xmlns:sodipodi="http://sodipodi.sourceforge.net/DTD/sodipodi-0.dtd"
   xmlns="http://www.w3.org/2000/svg"
   xmlns:svg="http://www.w3.org/2000/svg">
  <defs
     id="defs62107">
    <clipPath
       clipPathUnits="userSpaceOnUse"
       id="clipPath62127">
      <path
         d="M 0,600 H 600 V 0 H 0 Z"
         id="path62125" />
    </clipPath>
  </defs>
  <sodipodi:namedview
     id="namedview62105"
     pagecolor="#ffffff"
     bordercolor="#000000"
     borderopacity="0.25"
     inkscape:showpageshadow="2"
     inkscape:pageopacity="0.0"
     inkscape:pagecheckerboard="0"
     inkscape:deskcolor="#d1d1d1"
     showgrid="false"
     inkscape:zoom="1.04625"
     inkscape:cx="400"
     inkscape:cy="476.94146"
     inkscape:window-width="1920"
     inkscape:window-height="1017"
     inkscape:window-x="-8"
     inkscape:window-y="-8"
     inkscape:window-maximized="1"
     inkscape:current-layer="g62111">
    <inkscape:page
       x="0"
       y="0"
       id="page62109"
       width="800"
       height="800" />
  </sodipodi:namedview>
  <g
     id="g62111"
     inkscape:groupmode="layer"
     inkscape:label="Page 1"
     transform="matrix(1.3333333,0,0,-1.3333333,0,800)">
    <path
       d="M 0.698,0 H 599.85 V 599.001 H 0.698 Z"
       style="fill:#8585cc;fill-opacity:1;fill-rule:nonzero;stroke:none"
       id="path62113" />
    <g
       id="g62115"
       transform="translate(0.6993,410.5953)">
      <path
         d="m 0,0 v -171.017 l 599.152,16.603 V 6.643 l -138.351,-38.188 -83.849,5.81 -156.906,48.982 -107.924,9.131 z"
         style="fill:#b096d4;fill-opacity:1;fill-rule:nonzero;stroke:none"
         id="path62117" />
    </g>
    <path
       d="M 0.698,155.731 H 599.85 V 305.993 H 0.698 Z"
       style="fill:#c585cc;fill-opacity:1;fill-rule:nonzero;stroke:none"
       id="path62119" />
    <g
       id="g62121">
      <g
         id="g62123"
         clip-path="url(#clipPath62127)">
        <g
           id="g62129"
           transform="translate(599.8506,286.8984)">
          <path
             d="m 0,0 c -72.406,0 -134.852,-23.245 -207.256,-23.245 -56.223,0 -117.711,22.798 -176.104,27.861 C -457.19,11.017 -528.064,0 -599.151,0 v 38.189 c 85.247,0 169.666,37.359 254.914,37.359 C -229.769,75.548 -114.47,38.19 0,38.19 Z"
             style="fill:#d399de;fill-opacity:1;fill-rule:evenodd;stroke:none"
             id="path62131" />
        </g>
        <g
           id="g62133"
           transform="translate(367.1816,345.4536)">
          <path
             d="m 0,0 c 47.928,-62.627 36.011,-152.25 -26.617,-200.176 -62.626,-47.928 -152.249,-36.013 -200.177,26.616 -47.928,62.625 -36.01,152.248 26.616,200.176 C -137.55,74.544 -47.928,62.626 0,0"
             style="fill:#ffd659;fill-opacity:1;fill-rule:evenodd;stroke:none"
             id="path62135" />
        </g>
        <g
           id="g62137"
           transform="translate(272.3853,353.0205)">
          <path
             d="m 0,0 c 25.054,-32.74 18.825,-79.592 -13.915,-104.647 -32.738,-25.053 -79.589,-18.825 -104.645,13.915 -25.054,32.738 -18.825,79.59 13.914,104.644 C -71.906,38.968 -25.054,32.737 0,0"
             style="fill:#ffe082;fill-opacity:1;fill-rule:evenodd;stroke:none"
             id="path62139" />
        </g>
        <g
           id="g62141"
           transform="translate(0.6992,434.6719)">
          <path
             d="m 0,0 c 40.417,0 92.459,26.369 132.877,26.566 90.288,0.442 175.2,-62.627 262.311,-70.06 C 461.676,-49.168 530.14,0.44 599.151,0 V -48.15 C 535.36,-48.15 454.388,-69.116 395.034,-61.126 297.677,-48.02 223.404,-3.32 118.763,-3.32 63.401,-3.32 31.286,-48.151 0,-48.151 Z"
             style="fill:#b3b3e6;fill-opacity:1;fill-rule:evenodd;stroke:none"
             id="path62143" />
        </g>
        <g
           id="g62145"
           transform="translate(367.1816,345.4536)">
          <path
             d="m 0,0 c 47.928,-62.627 36.011,-152.25 -26.617,-200.176 -38.923,-29.789 -88.271,-36.453 -131.557,-22.201 36.041,-4.637 73.852,4.394 104.991,28.224 C 9.444,-146.226 21.361,-56.605 -26.566,6.024 -44.708,29.727 -68.823,46.16 -95.185,54.839 -58.738,50.152 -24.098,31.489 0,0"
             style="fill:#ffc53d;fill-opacity:1;fill-rule:evenodd;stroke:none"
             id="path62147" />
        </g>
        <g
           id="g62149"
           transform="translate(79.9653,70.7275)">
          <path
             d="m 0,0 c -1.215,-0.062 -2.438,-0.092 -3.669,-0.092 -39.43,0 -71.394,31.964 -71.394,71.396 0,36.569 27.496,66.713 62.941,70.895 18.801,23 47.392,37.685 79.418,37.685 27.477,0 52.429,-10.81 70.837,-28.407 7.491,3.937 16.018,6.167 25.068,6.167 29.802,0 53.961,-24.16 53.961,-53.962 0,-28.838 -22.62,-52.392 -51.087,-53.887 C 154.037,6.556 114.374,-25.176 67.296,-25.176 41.543,-25.176 18.009,-15.68 0,0 m 470.41,153.439 c 22.17,-1.101 39.808,-19.426 39.808,-41.872 0,-23.151 -18.77,-41.922 -41.922,-41.922 -1.579,0 -3.135,0.088 -4.67,0.259 -13.474,-16.38 -33.899,-26.827 -56.764,-26.827 -12.435,0 -24.142,3.092 -34.405,8.542 -9.972,-7.45 -22.344,-11.86 -35.749,-11.86 -33.01,0 -59.772,26.759 -59.772,59.771 0,33.013 26.762,59.774 59.772,59.774 3.349,0 6.632,-0.28 9.83,-0.808 13.274,19.054 35.339,31.525 60.324,31.525 27.13,0 50.821,-14.707 63.548,-36.582"
             style="fill:#82970a;fill-opacity:1;fill-rule:evenodd;stroke:none"
             id="path62151" />
        </g>
        <g
           id="g62153"
           transform="translate(75.6968,80.127)">
          <path
             d="m 0,0 c 16.45,-14.323 37.299,-22.114 59.111,-22.114 40.39,0 75.94,26.94 86.774,65.852 l 2.403,8.635 8.95,0.47 c 22.013,1.154 39.278,19.392 39.278,41.439 0,22.924 -18.577,41.499 -41.499,41.499 -6.732,0 -13.31,-1.603 -19.269,-4.735 l -7.934,-4.169 -6.476,6.191 c -16.821,16.079 -38.954,24.954 -62.226,24.954 -27.156,0 -52.608,-12.116 -69.771,-33.11 l -3.186,-3.898 -5.002,-0.59 c -29.6,-3.494 -51.939,-28.699 -51.939,-58.52 0,-32.55 26.382,-58.931 58.933,-58.931 1.013,0 2.027,0.024 3.037,0.075 l 5.023,0.254 z m 370.118,53.227 c 8.818,-4.683 18.574,-7.086 28.559,-7.086 18.331,0 35.513,8.142 47.142,22.282 l 4.288,5.213 6.708,-0.743 c 1.094,-0.122 2.194,-0.184 3.297,-0.184 16.273,0 29.459,13.184 29.459,29.459 0,15.682 -12.302,28.646 -27.965,29.425 l -6.753,0.335 -3.4,5.845 c -10.94,18.802 -30.956,30.385 -52.776,30.385 -20.057,0 -38.661,-9.769 -50.097,-26.185 l -4.498,-6.456 -7.761,1.284 c -2.577,0.427 -5.185,0.641 -7.795,0.641 -26.133,0 -47.311,-21.177 -47.311,-47.311 0,-26.132 21.178,-47.311 47.31,-47.311 10.237,0 20.087,3.253 28.286,9.383 l 6.329,4.729 z"
             style="fill:#adc42d;fill-opacity:1;fill-rule:evenodd;stroke:none"
             id="path62155" />
        </g>
        <g
           id="g62157"
           transform="translate(599.8506,199.0195)">
          <path
             d="M 0,0 V -199.169 H -599.151 V -11.69 C -481.81,-0.768 -352.613,5.289 -216.903,5.289 -142.343,5.289 -69.75,3.456 0,0"
             style="fill:#d98e47;fill-opacity:1;fill-rule:evenodd;stroke:none"
             id="path62159" />
        </g>
        <g
           id="g62161"
           transform="translate(599.8506,137.8232)">
          <path
             d="M 0,0 V -137.973 H -599.151 V 17.004 c 55.158,1.948 111.729,2.978 169.408,2.978 C -276.659,19.982 -131.225,12.837 0,0"
             style="fill:#b8681e;fill-opacity:1;fill-rule:evenodd;stroke:none"
             id="path62163" />
        </g>
        <g
           id="g62165"
           transform="translate(599.8506,109.5889)">
          <path
             d="m 0,0 v -109.738 h -599.151 v 144.48 c 13.695,0.116 27.437,0.193 41.262,0.193 C -352.961,34.935 -161.754,22.127 0,0"
             style="fill:#9e540f;fill-opacity:1;fill-rule:evenodd;stroke:none"
             id="path62167" />
        </g>
        <g
           id="g62169"
           transform="translate(0.6992,187.3291)">
          <path
             d="m 0,0 c 117.342,10.923 246.539,16.979 382.248,16.979 74.561,0 147.153,-1.833 216.903,-5.289 C 402.094,12.892 203.709,11.549 0,0"
             style="fill:#ebb481;fill-opacity:1;fill-rule:evenodd;stroke:none"
             id="path62171" />
        </g>
        <g
           id="g62173"
           transform="translate(473.958,576.6367)">
          <path
             d="M 0,0 0.486,-1.587 2.075,-2.075 0.486,-2.563 0,-4.151 l -0.489,1.588 -1.586,0.488 1.586,0.488 z"
             style="fill:#ffffff;fill-opacity:1;fill-rule:evenodd;stroke:none"
             id="path62175" />
        </g>
        <g
           id="g62177"
           transform="translate(501.3555,543.4292)">
          <path
             d="M 0,0 0.681,-2.223 2.904,-2.906 0.681,-3.588 0,-5.81 l -0.684,2.222 -2.224,0.682 2.224,0.683 z"
             style="fill:#ffffff;fill-opacity:1;fill-rule:evenodd;stroke:none"
             id="path62179" />
        </g>
        <g
           id="g62181"
           transform="translate(516.7129,497.769)">
          <path
             d="M 0,0 0.976,-3.176 4.151,-4.152 0.976,-5.127 0,-8.303 l -0.976,3.176 -3.174,0.975 3.174,0.976 z"
             style="fill:#ffffff;fill-opacity:1;fill-rule:evenodd;stroke:none"
             id="path62183" />
        </g>
        <g
           id="g62185"
           transform="translate(337.3926,562.5239)">
          <path
             d="M 0,0 1.364,-4.446 5.81,-5.812 1.364,-7.178 0,-11.623 l -1.366,4.445 -4.445,1.366 4.445,1.366 z"
             style="fill:#ffffff;fill-opacity:1;fill-rule:evenodd;stroke:none"
             id="path62187" />
        </g>
        <g
           id="g62189"
           transform="translate(217.4297,567.5044)">
          <path
             d="M 0,0 0.391,-1.27 1.661,-1.661 0.391,-2.05 0,-3.32 l -0.39,1.27 -1.271,0.389 1.271,0.391 z"
             style="fill:#ffffff;fill-opacity:1;fill-rule:evenodd;stroke:none"
             id="path62191" />
        </g>
        <g
           id="g62193"
           transform="translate(198.5425,534.7124)">
          <path
             d="M 0,0 1.024,-3.334 4.359,-4.358 1.024,-5.382 0,-8.717 l -1.023,3.335 -3.334,1.024 3.334,1.024 z"
             style="fill:#ffffff;fill-opacity:1;fill-rule:evenodd;stroke:none"
             id="path62195" />
        </g>
        <g
           id="g62197"
           transform="translate(253.5425,584.9385)">
          <path
             d="M 0,0 0.976,-3.175 4.151,-4.15 0.976,-5.125 0,-8.301 l -0.974,3.176 -3.175,0.975 3.175,0.975 z"
             style="fill:#ffffff;fill-opacity:1;fill-rule:evenodd;stroke:none"
             id="path62199" />
        </g>
        <g
           id="g62201"
           transform="translate(380.5605,551.3164)">
          <path
             d="M 0,0 1.951,-6.352 8.303,-8.302 1.951,-10.253 0,-16.604 l -1.949,6.351 -6.353,1.951 6.353,1.95 z"
             style="fill:#ffffff;fill-opacity:1;fill-rule:evenodd;stroke:none"
             id="path62203" />
        </g>
        <g
           id="g62205"
           transform="translate(448.8438,505.6553)">
          <path
             d="M 0,0 0.732,-2.381 3.113,-3.113 0.732,-3.844 0,-6.226 l -0.732,2.382 -2.381,0.731 2.381,0.732 z"
             style="fill:#ffffff;fill-opacity:1;fill-rule:evenodd;stroke:none"
             id="path62207" />
        </g>
        <g
           id="g62209"
           transform="translate(459.8457,547.9956)">
          <path
             d="M 0,0 0.876,-2.858 3.734,-3.736 0.876,-4.614 0,-7.472 l -0.878,2.858 -2.859,0.878 2.859,0.878 z"
             style="fill:#ffffff;fill-opacity:1;fill-rule:evenodd;stroke:none"
             id="path62211" />
        </g>
        <g
           id="g62213"
           transform="translate(548.4668,574.1465)">
          <path
             d="M 0,0 1.514,-4.922 6.435,-6.434 1.514,-7.946 0,-12.868 l -1.511,4.922 -4.921,1.512 4.921,1.512 z"
             style="fill:#ffffff;fill-opacity:1;fill-rule:evenodd;stroke:none"
             id="path62215" />
        </g>
        <g
           id="g62217"
           transform="translate(567.7705,520.5991)">
          <path
             d="M 0,0 1.364,-4.445 5.81,-5.812 1.364,-7.177 0,-11.623 l -1.368,4.446 -4.446,1.365 4.446,1.367 z"
             style="fill:#ffffff;fill-opacity:1;fill-rule:evenodd;stroke:none"
             id="path62219" />
        </g>
        <g
           id="g62221"
           transform="translate(57.4106,573.731)">
          <path
             d="M 0,0 0.245,-0.794 1.038,-1.038 0.245,-1.282 0,-2.075 l -0.245,0.793 -0.793,0.244 0.793,0.244 z"
             style="fill:#ffffff;fill-opacity:1;fill-rule:evenodd;stroke:none"
             id="path62223" />
        </g>
        <g
           id="g62225"
           transform="translate(103.9019,576.0137)">
          <path
             d="M 0,0 0.389,-1.269 1.66,-1.66 0.389,-2.05 0,-3.32 l -0.39,1.27 -1.271,0.39 1.271,0.391 z"
             style="fill:#ffffff;fill-opacity:1;fill-rule:evenodd;stroke:none"
             id="path62227" />
        </g>
        <g
           id="g62229"
           transform="translate(75.1563,544.4678)">
          <path
             d="M 0,0 0.56,-1.826 2.386,-2.387 0.56,-2.948 0,-4.774 l -0.561,1.826 -1.825,0.561 1.825,0.561 z"
             style="fill:#ffffff;fill-opacity:1;fill-rule:evenodd;stroke:none"
             id="path62231" />
        </g>
        <g
           id="g62233"
           transform="translate(137.1094,532.6372)">
          <path
             d="M 0,0 0.243,-0.794 1.038,-1.038 0.243,-1.282 0,-2.076 l -0.245,0.794 -0.793,0.244 0.793,0.244 z"
             style="fill:#ffffff;fill-opacity:1;fill-rule:evenodd;stroke:none"
             id="path62235" />
        </g>
        <g
           id="g62237"
           transform="translate(158.2788,562.3159)">
          <path
             d="M 0,0 1.024,-3.334 4.358,-4.358 1.024,-5.382 0,-8.717 l -1.024,3.335 -3.335,1.024 3.335,1.024 z"
             style="fill:#ffffff;fill-opacity:1;fill-rule:evenodd;stroke:none"
             id="path62239" />
        </g>
        <g
           id="g62241"
           transform="translate(268.5908,524.751)">
          <path
             d="M 0,0 0.122,-0.397 0.519,-0.52 0.122,-0.642 0,-1.039 l -0.122,0.397 -0.396,0.122 0.396,0.123 z"
             style="fill:#ffffff;fill-opacity:1;fill-rule:evenodd;stroke:none"
             id="path62243" />
        </g>
        <g
           id="g62245"
           transform="translate(345.2793,509.1841)">
          <path
             d="M 0,0 0.976,-3.175 4.151,-4.151 0.976,-5.126 0,-8.301 l -0.976,3.175 -3.174,0.975 3.174,0.976 z"
             style="fill:#ffffff;fill-opacity:1;fill-rule:evenodd;stroke:none"
             id="path62247" />
        </g>
        <g
           id="g62249"
           transform="translate(235.4863,179.1846)">
          <path
             d="M 0,0 C 6.289,0 11.415,2.237 11.415,4.981 11.415,7.724 6.289,9.962 0,9.962 -6.286,9.962 -11.415,7.724 -11.415,4.981 -11.415,2.237 -6.286,0 0,0"
             style="fill:#c9803c;fill-opacity:1;fill-rule:evenodd;stroke:none"
             id="path62251" />
        </g>
        <g
           id="g62253"
           transform="translate(335.1084,180.4307)">
          <path
             d="M 0,0 C 7.431,0 13.491,1.396 13.491,3.112 13.491,4.827 7.431,6.226 0,6.226 -7.43,6.226 -13.49,4.827 -13.49,3.112 -13.49,1.396 -7.43,0 0,0"
             style="fill:#c9803c;fill-opacity:1;fill-rule:evenodd;stroke:none"
             id="path62255" />
        </g>
        <g
           id="g62257"
           transform="translate(424.9766,172.542)">
          <path
             d="m 0,0 c 2.745,0 4.982,1.586 4.982,3.529 0,1.944 -2.237,3.53 -4.982,3.53 -2.743,0 -4.982,-1.586 -4.982,-3.53 C -4.982,1.586 -2.743,0 0,0"
             style="fill:#c9803c;fill-opacity:1;fill-rule:evenodd;stroke:none"
             id="path62259" />
        </g>
        <g
           id="g62261"
           transform="translate(490.9775,188.3184)">
          <path
             d="M 0,0 C 2.514,0 4.567,0.839 4.567,1.867 4.567,2.895 2.514,3.734 0,3.734 -2.516,3.734 -4.567,2.895 -4.567,1.867 -4.567,0.839 -2.516,0 0,0"
             style="fill:#c9803c;fill-opacity:1;fill-rule:evenodd;stroke:none"
             id="path62263" />
        </g>
        <g
           id="g62265"
           transform="translate(509.0352,173.7881)">
          <path
             d="M 0,0 C 2.286,0 4.151,0.653 4.151,1.453 4.151,2.253 2.286,2.907 0,2.907 -2.286,2.907 -4.15,2.253 -4.15,1.453 -4.15,0.653 -2.286,0 0,0"
             style="fill:#c9803c;fill-opacity:1;fill-rule:evenodd;stroke:none"
             id="path62267" />
        </g>
        <g
           id="g62269"
           transform="translate(539.543,186.0342)">
          <path
             d="M 0,0 C 1.143,0 2.076,0.467 2.076,1.038 2.076,1.609 1.143,2.076 0,2.076 -1.143,2.076 -2.075,1.609 -2.075,1.038 -2.075,0.467 -1.143,0 0,0"
             style="fill:#c9803c;fill-opacity:1;fill-rule:evenodd;stroke:none"
             id="path62271" />
        </g>
        <g
           id="g62273"
           transform="translate(551.6855,165.2803)">
          <path
             d="M 0,0 C 2.8,0 5.086,0.933 5.086,2.075 5.086,3.219 2.8,4.151 0,4.151 -2.8,4.151 -5.086,3.219 -5.086,2.075 -5.086,0.933 -2.8,0 0,0"
             style="fill:#c9803c;fill-opacity:1;fill-rule:evenodd;stroke:none"
             id="path62275" />
        </g>
        <g
           id="g62277"
           transform="translate(297.5435,171.0908)">
          <path
             d="M 0,0 C 2.743,0 4.981,1.308 4.981,2.907 4.981,4.508 2.743,5.812 0,5.812 -2.744,5.812 -4.982,4.508 -4.982,2.907 -4.982,1.308 -2.744,0 0,0"
             style="fill:#c9803c;fill-opacity:1;fill-rule:evenodd;stroke:none"
             id="path62279" />
        </g>
        <g
           id="g62281"
           transform="translate(386.9951,158.6377)">
          <path
             d="M 0,0 C 3.545,0 6.435,1.214 6.435,2.7 6.435,4.187 3.545,5.396 0,5.396 -3.543,5.396 -6.433,4.187 -6.433,2.7 -6.433,1.214 -3.543,0 0,0"
             style="fill:#c9803c;fill-opacity:1;fill-rule:evenodd;stroke:none"
             id="path62283" />
        </g>
        <g
           id="g62285"
           transform="translate(42.3647,105.2998)">
          <path
             d="M 0,0 C 5.487,0 9.962,1.959 9.962,4.359 9.962,6.762 5.487,8.718 0,8.718 -5.486,8.718 -9.962,6.762 -9.962,4.359 -9.962,1.959 -5.486,0 0,0"
             style="fill:#87470b;fill-opacity:1;fill-rule:evenodd;stroke:none"
             id="path62287" />
        </g>
        <g
           id="g62289"
           transform="translate(131.4019,95.7549)">
          <path
             d="M 0,0 C 9.26,0 16.812,2.702 16.812,6.019 16.812,9.334 9.26,12.036 0,12.036 -9.258,12.036 -16.812,9.334 -16.812,6.019 -16.812,2.702 -9.258,0 0,0"
             style="fill:#87470b;fill-opacity:1;fill-rule:evenodd;stroke:none"
             id="path62291" />
        </g>
        <g
           id="g62293"
           transform="translate(125.3228,58.0156)">
          <path
             d="M 0,0 C 5.225,0 9.487,2.321 9.487,5.17 9.487,8.018 5.225,10.342 0,10.342 -5.225,10.342 -9.487,8.018 -9.487,5.17 -9.487,2.321 -5.225,0 0,0"
             style="fill:#87470b;fill-opacity:1;fill-rule:evenodd;stroke:none"
             id="path62295" />
        </g>
        <g
           id="g62297"
           transform="translate(264.0254,62.5469)">
          <path
             d="M 0,0 C 4.344,0 7.887,1.397 7.887,3.113 7.887,4.827 4.344,6.227 0,6.227 -4.344,6.227 -7.887,4.827 -7.887,3.113 -7.887,1.397 -4.344,0 0,0"
             style="fill:#87470b;fill-opacity:1;fill-rule:evenodd;stroke:none"
             id="path62299" />
        </g>
        <g
           id="g62301"
           transform="translate(291.2129,97.4141)">
          <path
             d="M 0,0 C 3.773,0 6.85,1.306 6.85,2.905 6.85,4.505 3.773,5.811 0,5.811 -3.772,5.811 -6.848,4.505 -6.848,2.905 -6.848,1.306 -3.772,0 0,0"
             style="fill:#87470b;fill-opacity:1;fill-rule:evenodd;stroke:none"
             id="path62303" />
        </g>
        <g
           id="g62305"
           transform="translate(372.3643,60.8857)">
          <path
             d="M 0,0 C 5.944,0 10.792,2.146 10.792,4.775 10.792,7.404 5.944,9.547 0,9.547 -5.943,9.547 -10.792,7.404 -10.792,4.775 -10.792,2.146 -5.943,0 0,0"
             style="fill:#87470b;fill-opacity:1;fill-rule:evenodd;stroke:none"
             id="path62307" />
        </g>
        <g
           id="g62309"
           transform="translate(415.5342,83.7158)">
          <path
             d="M 0,0 C 5.259,0 9.548,1.864 9.548,4.15 9.548,6.436 5.259,8.302 0,8.302 -5.259,8.302 -9.548,6.436 -9.548,4.15 -9.548,1.864 -5.259,0 0,0"
             style="fill:#87470b;fill-opacity:1;fill-rule:evenodd;stroke:none"
             id="path62311" />
        </g>
        <g
           id="g62313"
           transform="translate(225.4209,22.2812)">
          <path
             d="M 0,0 C 4.573,0 8.302,1.678 8.302,3.737 8.302,5.794 4.573,7.472 0,7.472 -4.571,7.472 -8.302,5.794 -8.302,3.737 -8.302,1.678 -4.571,0 0,0"
             style="fill:#87470b;fill-opacity:1;fill-rule:evenodd;stroke:none"
             id="path62315" />
        </g>
        <g
           id="g62317"
           transform="translate(479.0439,48.0195)">
          <path
             d="M 0,0 C 4.343,0 7.889,1.396 7.889,3.112 7.889,4.826 4.343,6.226 0,6.226 -4.343,6.226 -7.886,4.826 -7.886,3.112 -7.886,1.396 -4.343,0 0,0"
             style="fill:#87470b;fill-opacity:1;fill-rule:evenodd;stroke:none"
             id="path62319" />
        </g>
        <g
           id="g62321"
           transform="translate(549.8174,77.4893)">
          <path
             d="M 0,0 C 4.687,0 8.511,1.586 8.511,3.529 8.511,5.473 4.687,7.056 0,7.056 -4.686,7.056 -8.51,5.473 -8.51,3.529 -8.51,1.586 -4.686,0 0,0"
             style="fill:#87470b;fill-opacity:1;fill-rule:evenodd;stroke:none"
             id="path62323" />
        </g>
        <g
           id="g62325"
           transform="translate(536.9492,23.5273)">
          <path
             d="M 0,0 C 3.086,0 5.605,1.118 5.605,2.491 5.605,3.861 3.086,4.98 0,4.98 -3.087,4.98 -5.602,3.861 -5.602,2.491 -5.602,1.118 -3.087,0 0,0"
             style="fill:#87470b;fill-opacity:1;fill-rule:evenodd;stroke:none"
             id="path62327" />
        </g>
      </g>
    </g>
  </g>
</svg>
